<svg xmlns="http://www.w3.org/2000/svg" viewBox="0 0 500 372.61"><defs><style>.cls-1{fill:#ebebeb;}.cls-2{fill:#e0e0e0;}.cls-3,.cls-4{fill:#f0f0f0;}.cls-4{stroke:#e0e0e0;stroke-width:1.73px;}.cls-33,.cls-4{stroke-linecap:round;stroke-linejoin:round;}.cls-5{fill:#f5f5f5;}.cls-6{fill:#e6e6e6;}.cls-7{fill:#fafafa;}.cls-8{fill:#263238;}.cls-35,.cls-9{opacity:0.5;}.cls-10,.cls-11,.cls-14,.cls-17,.cls-19,.cls-21,.cls-25,.cls-26,.cls-27,.cls-34,.cls-35{fill:#fff;}.cls-11,.cls-15,.cls-17,.cls-23{opacity:0.6;}.cls-12{fill:#ef4444;}.cls-13,.cls-24,.cls-27{opacity:0.2;}.cls-14,.cls-29{opacity:0.1;}.cls-16{fill:#b65b52;}.cls-17,.cls-19,.cls-22,.cls-23,.cls-24,.cls-25,.cls-26,.cls-29,.cls-35{isolation:isolate;}.cls-18{fill:#b55b52;}.cls-19,.cls-21{opacity:0.4;}.cls-20{fill:#a02724;}.cls-22{opacity:0.3;}.cls-25,.cls-34{opacity:0.7;}.cls-26{opacity:0.8;}.cls-28{fill:#e9b376;}.cls-30{fill:#ebb376;}.cls-31,.cls-33{fill:none;stroke:#263238;}.cls-31{stroke-miterlimit:10;stroke-width:2.14px;}.cls-32{fill:#d58745;}.cls-33{stroke-width:0.54px;}</style></defs><g id="Layer_2" data-name="Layer 2"><g id="Character_1" data-name="Character 1"><rect class="cls-1" y="327.45" width="500" height="0.25"/><rect class="cls-1" x="416.78" y="343.54" width="33.12" height="0.25"/><rect class="cls-1" x="322.53" y="346.26" width="8.69" height="0.25"/><rect class="cls-1" x="396.59" y="334.26" width="19.19" height="0.25"/><rect class="cls-1" x="52.46" y="335.94" width="43.19" height="0.25"/><rect class="cls-1" x="104.56" y="335.94" width="6.33" height="0.25"/><rect class="cls-1" x="131.47" y="340.16" width="93.68" height="0.25"/><path class="cls-1" d="M237,282.85H43.91a5.71,5.71,0,0,1-5.7-5.71V5.71A5.71,5.71,0,0,1,43.91,0H237a5.71,5.71,0,0,1,5.71,5.71V277.14A5.71,5.71,0,0,1,237,282.85ZM43.91.25a5.46,5.46,0,0,0-5.45,5.46V277.14a5.46,5.46,0,0,0,5.45,5.46H237a5.47,5.47,0,0,0,5.46-5.46V5.71A5.47,5.47,0,0,0,237,.25Z"/><path class="cls-1" d="M453.31,282.85H260.21a5.72,5.72,0,0,1-5.71-5.71V5.71A5.72,5.72,0,0,1,260.21,0h193.1A5.71,5.71,0,0,1,459,5.71V277.14A5.71,5.71,0,0,1,453.31,282.85ZM260.21.25a5.47,5.47,0,0,0-5.46,5.46V277.14a5.47,5.47,0,0,0,5.46,5.46h193.1a5.47,5.47,0,0,0,5.46-5.46V5.71A5.47,5.47,0,0,0,453.31.25Z"/><path class="cls-2" d="M390.11,297.91s5.65-12.32-.81-24.47-8.32-15-4.21-17.5,6,9.72,6,9.72,3.46-8.4.6-17.19S387,225.36,391,223.82s.75,17.86,4.14,24.47a57,57,0,0,0,3.32-14.42c.47-7.06-.26-18.33,2.83-21.22s5.06-.89,2,14.69a162.86,162.86,0,0,0-3,28.24s6.71-20.44,11.21-21,4.49,6,.64,11.76-11.28,16-12.5,21.32c0,0,7.36-15.38,14-10.67s-5.76,14-11.28,17.37-9.35,24.4-9.35,24.4Z"/><path class="cls-1" d="M394.57,303s-5.5-12.41,1.1-24.46,8.5-14.89,4.42-17.44S394,270.7,394,270.7s-3.37-8.45-.4-17.2,4.94-23,1.05-24.63-1,17.85-4.44,24.41A56.94,56.94,0,0,1,387,238.81c-.39-7.07.48-18.33-2.57-21.27s-5.06-1-2.21,14.66a162.68,162.68,0,0,1,2.67,28.29S378.47,240,374,239.29s-4.56,6-.78,11.75,11.08,16.2,12.24,21.51c0,0-7.17-15.49-13.85-10.88s5.59,14.09,11.07,17.53,9.06,24.54,9.06,24.54Z"/><polygon class="cls-1" points="369.2 294.12 414.64 294.12 410.96 326.64 372.88 326.64 369.2 294.12"/><circle class="cls-2" cx="253.7" cy="48.77" r="20.32" transform="translate(-4.42 59.59) rotate(-13.28)"/><circle class="cls-3" cx="253.7" cy="48.77" r="17.28" transform="translate(-4.42 59.59) rotate(-13.28)"/><polyline class="cls-4" points="252.88 60.63 252.88 48.55 244.88 53.08"/><rect class="cls-2" x="359.41" y="63.68" width="65.78" height="84.65" transform="translate(498.31 -286.3) rotate(90)"/><rect class="cls-1" x="352.55" y="75.83" width="79.52" height="60.34"/><rect class="cls-5" x="381.26" y="104.28" width="9.59" height="13.56"/><rect class="cls-5" x="393.25" y="108.28" width="10.1" height="14.51"/><rect class="cls-5" x="389.96" y="83.33" width="10.1" height="14.51" transform="translate(15.19 -50.75) rotate(7.49)"/><rect class="cls-5" x="415.48" y="82.73" width="10.1" height="14.51"/><rect class="cls-5" x="403.41" y="81.2" width="10.1" height="14.51"/><rect class="cls-5" x="359.46" y="80.78" width="6.27" height="6.27"/><rect class="cls-5" x="367.65" y="81.36" width="6.27" height="6.27" transform="translate(54.69 -126.94) rotate(20.94)"/><path class="cls-2" d="M362.6,81.57a.38.38,0,0,1-.37.37.37.37,0,1,1,0-.74A.38.38,0,0,1,362.6,81.57Z"/><path class="cls-2" d="M369.81,81.57a.37.37,0,1,1-.37-.37A.38.38,0,0,1,369.81,81.57Z"/><path class="cls-2" d="M396.06,96.67a.37.37,0,1,1-.37-.37A.38.38,0,0,1,396.06,96.67Z"/><path class="cls-2" d="M386.43,105.27a.37.37,0,0,1-.37.36.37.37,0,1,1,0-.73A.37.37,0,0,1,386.43,105.27Z"/><path class="cls-2" d="M391.93,83.77a.37.37,0,1,1-.37-.37A.37.37,0,0,1,391.93,83.77Z"/><circle class="cls-2" cx="408.46" cy="82.03" r="0.37"/><path class="cls-2" d="M420.89,83.4a.37.37,0,1,1-.73,0,.37.37,0,0,1,.73,0Z"/><rect class="cls-2" x="407.03" y="118.89" width="20.11" height="12.61"/><rect class="cls-2" x="361.03" y="117.29" width="17.56" height="13.86"/><rect class="cls-6" x="67.26" y="64.39" width="68.62" height="124.62"/><rect class="cls-3" x="72.22" y="69.33" width="59" height="115"/><polygon class="cls-7" points="101.33 69.33 72.22 178.35 72.22 119.33 85.54 69.33 101.33 69.33"/><polygon class="cls-7" points="114.34 69.33 83.64 184.33 77.85 184.33 108.55 69.33 114.34 69.33"/><rect class="cls-6" x="69.22" y="149.72" width="64.5" height="4"/><ellipse id="_Path_" data-name="&lt;Path&gt;" class="cls-5" cx="250" cy="361.29" rx="193.89" ry="11.32"/><path class="cls-8" d="M169,355.3h5.42V209h6.83V355.3h5.42a1.52,1.52,0,0,1,1.52,1.51V359H167.48v-2.17A1.52,1.52,0,0,1,169,355.3Z"/><path class="cls-8" d="M297.08,355.3h5.42V209h6.83V355.3h5.42a1.52,1.52,0,0,1,1.52,1.51V359H295.56v-2.17A1.52,1.52,0,0,1,297.08,355.3Z"/><g class="cls-9"><path class="cls-10" d="M169,355.3h5.42V209h6.83V355.3h5.42a1.52,1.52,0,0,1,1.52,1.51V359H167.48v-2.17A1.52,1.52,0,0,1,169,355.3Z"/><path class="cls-10" d="M297.08,355.3h5.42V209h6.83V355.3h5.42a1.52,1.52,0,0,1,1.52,1.51V359H295.56v-2.17A1.52,1.52,0,0,1,297.08,355.3Z"/></g><rect class="cls-8" x="145.1" y="75.65" width="193.55" height="142.74" transform="translate(483.75 294.04) rotate(180)"/><rect class="cls-11" x="145.1" y="75.65" width="193.55" height="142.74" transform="translate(483.75 294.04) rotate(180)"/><rect class="cls-12" x="175.51" y="55.25" width="132.74" height="183.55" transform="translate(388.9 -94.86) rotate(90)"/><rect class="cls-13" x="175.51" y="55.25" width="132.74" height="183.55" transform="translate(388.9 -94.86) rotate(90)"/><path class="cls-14" d="M164.63,147.74c1.55-1.94,2.84-4.1,4.56-6a3.09,3.09,0,0,0,.7-1.25,7.27,7.27,0,0,1,4,.61c4.84,2.17,9.25,5.84,13.08,9.46.82.77,1.66,1.5,2.5,2.24-3.78-4.22-7.56-8.45-11.39-12.63a6.13,6.13,0,0,1-1.71-4.42,42.75,42.75,0,0,1,5.83-5.51,4,4,0,0,0,1-1,5.69,5.69,0,0,1,3.86,2c8.19,8.9,16.3,17.65,25.35,25.63-.73-1-1.46-2-2.16-3.07-4.75-7-9.84-13.82-15.15-20.46-3.74-4.68-10.2-10.43-11.39-16.63.24-.3.49-.61.75-.91s.67-.77,1-1.14a2.72,2.72,0,0,0,.94-.37c1.59-1,2.6-3.16,1.33-4.9a4.09,4.09,0,0,0-1-1c-1.93-2.43-3.82-4.88-5.62-7.41a4.65,4.65,0,0,1-.26-.41c1.29-3.71,4.37-6.4,7.37-8.93a5.49,5.49,0,0,1,2.82,1.68c3.61,3.91,7.75,7.36,11.09,11.51,3.59,4.45,6.55,9.37,10,14a1.84,1.84,0,0,1,.17.22c4.12,4.58,8.25,9.15,12.25,13.83,3.48,3.52,7,7,10.44,10.42,5.43,5.5,10.94,11,16.66,16.29-1.42-2.1-2.84-4.19-4.3-6.27-6.44-9.17-13.59-17.82-20.48-26.65-3.4-4.35-6.51-8.9-9.8-13.32-2.6-3.48-6.49-6.66-8.53-10.49a6.86,6.86,0,0,1-.8-2.47,4.41,4.41,0,0,0,.63-.66,18.19,18.19,0,0,1,6.23-4.76,2.88,2.88,0,0,0,1.26-1.2,7,7,0,0,1,2.61,1.43,100.06,100.06,0,0,1,9.13,8.95,22.42,22.42,0,0,1-2.21-4.93c-1.62-5.53,4.55-9.6,9.29-7.14l.41.22A7,7,0,0,1,243,87.68c1.83-2.44,5-3.72,7.91-1.53,11.86,9.06,23.16,19.09,34.35,29,1,.9,2,1.81,3,2.72A106.92,106.92,0,0,0,282,109c-2.57-3.26-6.15-6.66-7.52-10.71a2.25,2.25,0,0,0,.39-.3,36,36,0,0,0,7.22-9.25.36.36,0,0,1,0-.09c5,1.12,10.22,4.35,14.44,6.78A105.54,105.54,0,0,1,312,106.53a4.19,4.19,0,0,0,.27,1.53,6.21,6.21,0,0,0,.4.82l0,.89a14.55,14.55,0,0,0-1,2.54,4.56,4.56,0,0,0-1.9,1.66,5.08,5.08,0,0,0-.63,2.64c0,.25.06.5.1.74a2.92,2.92,0,0,0-1,1.45,6.42,6.42,0,0,1-3.09-1.51c-1.32-1.15-2.66-2.26-4-3.35,1.73,2.89,3.38,5.83,5.06,8.64,2.94,5,6,9.75,9.39,14.43,2.57,3.56,6,6.66,6.43,10.6-2.39,2-4.05,4.57-6.12,6.92a3.69,3.69,0,0,0-.29.4,12,12,0,0,1-6-2.21c.55.65,1.08,1.31,1.59,2,4.53,6.2,10.93,11.21,15,17.67a6.7,6.7,0,0,1,1,2.41l-1.42,1.8a3.43,3.43,0,0,0-.69,3.38l-.1.09c.17.2.34.39.5.6l0,0a7.54,7.54,0,0,1,1.42,2.93,32.53,32.53,0,0,1-7,7.83c-3.72-.27-7-2.69-10.29-4.58-2.24-1.29-4.47-2.61-6.68-4a21.44,21.44,0,0,1,2.8,4.6,7.32,7.32,0,0,1,.53,2,4.41,4.41,0,0,0-.53.35,53.12,53.12,0,0,0-7.63,6.76,8.27,8.27,0,0,1-1-.45,60,60,0,0,1-6.27-3.94,8.85,8.85,0,0,1,.49,2.88,3.47,3.47,0,0,0-2.79.84c-1.8,1.55-3.25,3.53-5,5.1a5,5,0,0,1-1.61-.71c-4.71-3.19-8.7-7.39-13.2-10.87-1.13-.88-2.27-1.74-3.41-2.6a6.75,6.75,0,0,1,.32,2.78,3.28,3.28,0,0,0-1.23.63c-2.16,1.74-4.27,3.53-6.41,5.3a6.19,6.19,0,0,1-1.53-.82,52.63,52.63,0,0,1-6-5,8.11,8.11,0,0,1-.24,1.11,2.64,2.64,0,0,0-2.6.22,53.2,53.2,0,0,0-5,4.06c-2.49-.66-4.22-2.48-6.23-4l-1-.78a6,6,0,0,1-.44.72,2.56,2.56,0,0,0-1.8.42,24,24,0,0,0-2.44,2.07l-.33.31a6,6,0,0,1-2.57-.07c-4.62-1.24-8.75-4.42-12.71-7.21.78.9,1.56,1.81,2.32,2.74,2.89,3.55,7.13,7.41,8.6,11.9a3.26,3.26,0,0,0-.51.63c-.55.91-1.17,1.82-1.83,2.71a23.59,23.59,0,0,0-5.81,4.8,6.51,6.51,0,0,1-.94-.32c-4.65-2-8.12-5.74-11.6-9.29-2.49-2.52-4.88-5.13-7.21-7.79a5.19,5.19,0,0,1-.52,1,3.45,3.45,0,0,0-3.33.7c-1,.83-2.09,1.59-3.16,2.36a6.57,6.57,0,0,1-4.86-2.63c-5.19-6.75-19.75-25.16-14.9-35.56a31,31,0,0,1-6-8.06A7.51,7.51,0,0,1,164.63,147.74Z"/><path class="cls-14" d="M320.73,147.1c-1.55,1.94-2.84,4.1-4.56,6a3.24,3.24,0,0,0-.71,1.25,7.25,7.25,0,0,1-4-.61c-4.84-2.17-9.25-5.84-13.09-9.46-.81-.77-1.65-1.51-2.5-2.24,3.79,4.22,7.56,8.45,11.39,12.63a6.14,6.14,0,0,1,1.72,4.42,43.34,43.34,0,0,1-5.83,5.51,3.8,3.8,0,0,0-1,1,5.69,5.69,0,0,1-3.86-2C290.12,154.74,282,146,273,138c.72,1,1.46,2,2.16,3.07,4.75,7,9.84,13.82,15.14,20.46,3.75,4.68,10.21,10.43,11.4,16.63-.25.3-.49.61-.75.91s-.68.77-1,1.14a2.72,2.72,0,0,0-.94.37c-1.59,1-2.6,3.16-1.33,4.9a3.92,3.92,0,0,0,1,1c1.93,2.43,3.81,4.88,5.62,7.41a4.65,4.65,0,0,1,.26.41c-1.3,3.71-4.37,6.4-7.37,8.93a5.46,5.46,0,0,1-2.82-1.68c-3.62-3.92-7.75-7.36-11.09-11.51-3.59-4.45-6.55-9.37-10-13.95l-.17-.22c-4.11-4.58-8.24-9.15-12.24-13.83-3.49-3.52-7-7-10.44-10.42-5.43-5.5-10.94-11-16.66-16.29,1.42,2.1,2.84,4.19,4.3,6.27,6.44,9.17,13.59,17.82,20.48,26.65,3.4,4.35,6.51,8.9,9.8,13.32,2.6,3.48,6.49,6.66,8.53,10.49a6.86,6.86,0,0,1,.8,2.47,4,4,0,0,0-.63.66,18.13,18.13,0,0,1-6.24,4.76,2.85,2.85,0,0,0-1.25,1.2,6.89,6.89,0,0,1-2.61-1.43,101.47,101.47,0,0,1-9.14-8.95,22.46,22.46,0,0,1,2.22,4.93c1.62,5.53-4.55,9.6-9.29,7.14l-.41-.22a7,7,0,0,1-7.92,4.57c-1.83,2.44-5,3.72-7.91,1.53-11.86-9.06-23.16-19.09-34.36-29l-3-2.72a106.92,106.92,0,0,0,6.26,8.83c2.57,3.26,6.15,6.66,7.51,10.71a3.4,3.4,0,0,0-.39.3,36.22,36.22,0,0,0-7.21,9.25s0,.06,0,.09c-5-1.12-10.22-4.35-14.45-6.78a106,106,0,0,1-15.35-11.09,4.19,4.19,0,0,0-.27-1.53,7.77,7.77,0,0,0-.4-.82c0-.29,0-.59,0-.89a13.86,13.86,0,0,0,1-2.54,4.56,4.56,0,0,0,1.9-1.66,5.08,5.08,0,0,0,.63-2.64c0-.25-.06-.5-.1-.75a2.83,2.83,0,0,0,1-1.44,6.45,6.45,0,0,1,3.1,1.51c1.32,1.15,2.66,2.26,4,3.35-1.72-2.89-3.38-5.83-5-8.64-2.94-4.95-6-9.75-9.4-14.43-2.56-3.56-6-6.66-6.42-10.6,2.39-2,4-4.57,6.12-6.92a3.69,3.69,0,0,0,.29-.4,12,12,0,0,1,6,2.21c-.55-.65-1.09-1.31-1.59-2-4.53-6.2-10.93-11.21-15-17.67a6.7,6.7,0,0,1-1-2.41l1.42-1.8a3.46,3.46,0,0,0,.69-3.38l.1-.09c-.17-.2-.34-.39-.5-.6l0,0a7.7,7.7,0,0,1-1.43-2.93,32.78,32.78,0,0,1,7-7.83c3.72.27,7,2.69,10.29,4.58q3.36,1.94,6.68,4a21.13,21.13,0,0,1-2.8-4.59,7.32,7.32,0,0,1-.53-2,3.64,3.64,0,0,0,.52-.35,52.66,52.66,0,0,0,7.64-6.76,8.27,8.27,0,0,1,1,.45,60,60,0,0,1,6.27,3.94,8.59,8.59,0,0,1-.49-2.88,3.49,3.49,0,0,0,2.79-.84c1.8-1.55,3.25-3.53,5-5.1a5,5,0,0,1,1.61.71c4.71,3.19,8.7,7.39,13.2,10.87,1.13.88,2.27,1.74,3.41,2.6a6.59,6.59,0,0,1-.32-2.78,3.28,3.28,0,0,0,1.23-.63c2.16-1.74,4.27-3.53,6.4-5.3a6.07,6.07,0,0,1,1.54.82,52.63,52.63,0,0,1,6,5,6.85,6.85,0,0,1,.24-1.11,2.64,2.64,0,0,0,2.6-.22,51.8,51.8,0,0,0,5-4.06c2.5.66,4.23,2.48,6.24,4l1,.78a6,6,0,0,1,.44-.72,2.57,2.57,0,0,0,1.8-.42,24,24,0,0,0,2.44-2.07l.33-.31a6,6,0,0,1,2.57.07c4.61,1.24,8.74,4.42,12.7,7.21-.77-.9-1.55-1.81-2.31-2.74-2.89-3.55-7.13-7.41-8.6-11.9a3.68,3.68,0,0,0,.51-.63c.55-.91,1.17-1.82,1.82-2.71a23.46,23.46,0,0,0,5.82-4.8,6.39,6.39,0,0,1,.93.32c4.65,2,8.13,5.74,11.61,9.29,2.48,2.52,4.88,5.13,7.2,7.79a5.23,5.23,0,0,1,.53-1,3.45,3.45,0,0,0,3.33-.7c1-.83,2.08-1.59,3.16-2.36a6.57,6.57,0,0,1,4.86,2.63c5.19,6.75,19.75,25.16,14.9,35.56a31.31,31.31,0,0,1,6,8A8.09,8.09,0,0,1,320.73,147.1Z"/><g class="cls-15"><path class="cls-10" d="M296.27,178.34a1.48,1.48,0,0,0-1.09.57l-.21-2.33-.67.06.52,5.6.59-.06,0-.47a1.55,1.55,0,0,0,1.17.43,1.77,1.77,0,0,0,1.48-2A1.75,1.75,0,0,0,296.27,178.34Zm.22,3.21c-.54,0-1.12-.28-1.21-1.2a1.16,1.16,0,0,1,1-1.41c.64-.06,1.09.46,1.16,1.21A1.15,1.15,0,0,1,296.49,181.55Z"/><path class="cls-10" d="M166.32,160.34a1.47,1.47,0,0,0-1.13.47v-2.34h-.68v5.62h.6l.08-.47a1.55,1.55,0,0,0,1.13.54,1.78,1.78,0,0,0,1.66-1.91A1.76,1.76,0,0,0,166.32,160.34Zm-.08,3.22c-.54,0-1.09-.39-1.09-1.31a1.16,1.16,0,0,1,1.09-1.31c.65,0,1,.56,1,1.31S166.89,163.56,166.24,163.56Z"/><path class="cls-10" d="M279.68,179.42c-.81.07-1.24-.41-1.32-1.21s.27-1.34,1.08-1.41a2.24,2.24,0,0,1,1,.13l0-.61a2.41,2.41,0,0,0-1.15-.11,1.74,1.74,0,0,0-1.64,2.06,1.77,1.77,0,0,0,2,1.74,1.8,1.8,0,0,0,1.09-.38l-.14-.53A2.15,2.15,0,0,1,279.68,179.42Z"/><path class="cls-10" d="M166.2,171.94a2.22,2.22,0,0,1,1,.22l.1-.61a2.41,2.41,0,0,0-1.13-.21,1.73,1.73,0,0,0-1.82,1.9,1.77,1.77,0,0,0,1.83,1.92,1.87,1.87,0,0,0,1.11-.28l-.09-.54a2.19,2.19,0,0,1-1,.23c-.81,0-1.2-.53-1.2-1.33S165.39,171.94,166.2,171.94Z"/><path class="cls-10" d="M262.29,177l-.07-.75c-.12-1.32-.52-1.72-1.45-1.63a2.09,2.09,0,0,0-1.2.49l.15.54a1.64,1.64,0,0,1,.93-.42c.51-.05.81.08.87.77-.93.1-2.16.48-2.06,1.51a1,1,0,0,0,1.23.95,1.42,1.42,0,0,0,1.06-.64c.19.33.34.51,1,.45h.06l.05-.55h-.07C262.4,177.8,262.34,177.56,262.29,177Zm-1.53.91a.51.51,0,0,1-.62-.5c-.05-.55.36-.81,1.43-.95l.08.88A1.2,1.2,0,0,1,260.76,178Z"/><path class="cls-10" d="M165.37,153.16a1.43,1.43,0,0,0,1.13-.54c.15.35.29.54.94.54h.05l.11-.54h-.07c-.39,0-.42-.24-.42-.77v-.75c0-1.32-.37-1.76-1.3-1.76a2.15,2.15,0,0,0-1.24.38l.1.55a1.6,1.6,0,0,1,1-.33c.51,0,.8.15.8.85-.94,0-2.2.28-2.2,1.31A1,1,0,0,0,165.37,153.16Zm1.07-1.91v.88a1.19,1.19,0,0,1-.94.49.5.5,0,0,1-.57-.56C164.93,151.52,165.37,151.29,166.44,151.25Z"/><path class="cls-10" d="M202.24,135.55a21.45,21.45,0,0,0,2.75-.8,21.2,21.2,0,0,0,13.47-14.29,19,19,0,0,0,.34-8.29l1-.22a.5.5,0,1,0-.22-1l-1,.22c-2.14-9.35-10.72-16.24-20.08-16.07a19,19,0,0,0-3.22.33l0-.06a.5.5,0,1,0-1,.21v.07a20.17,20.17,0,0,0-14.33,14c-2.74,8.87.06,17.86,7.15,22.89A18.87,18.87,0,0,0,202.24,135.55Zm15.38-24.15L206,114a15.72,15.72,0,0,0-1.69.52c-1.69.57-3.6,1.22-4.75.4-1.33-1-1.67-4.34-1.88-7a.5.5,0,0,0,.35.34h.22a.5.5,0,0,0,.38-.37,28.78,28.78,0,0,1,5-10.5.48.48,0,0,0,0-.58,18.7,18.7,0,0,1,3,1.07,32.81,32.81,0,0,0-2.14,7.66l0,.18c-.54,3-1.1,6-3,8.21a.5.5,0,0,0,.48.82.52.52,0,0,0,.27-.15c2.13-2.38,2.71-5.59,3.28-8.7l0-.18a32.35,32.35,0,0,1,2-7.39A20,20,0,0,1,217.62,111.4ZM199.05,96.13h0a17.38,17.38,0,0,1,3.88.47.37.37,0,0,0-.15.13,29.56,29.56,0,0,0-5.15,10.86v0c0-.06,0-.13,0-.19a24,24,0,0,0-.34-3l-.29-1.36a.51.51,0,0,0,.17-.25,46.15,46.15,0,0,1,2.18-6A.51.51,0,0,0,199.05,96.13Zm-.52,0a1,1,0,0,1,.17,0,.49.49,0,0,0-.31.27,49.78,49.78,0,0,0-1.82,4.91l-1.07-4.86A17.89,17.89,0,0,1,198.53,96.12ZM180.93,110a19.2,19.2,0,0,1,13.6-13.38l1.75,8a28.4,28.4,0,0,1,.32,2.87c.24,3.07.55,6.9,2.33,8.17a4.22,4.22,0,0,0,3.43.39,19.08,19.08,0,0,0,2.22-.66c.58-.19,1.13-.38,1.58-.48l11.66-2.55a18,18,0,0,1-.33,7.83,20.17,20.17,0,0,1-12.84,13.6,18.18,18.18,0,0,1-16.94-2C181,127,178.32,118.47,180.93,110Z"/><path class="cls-10" d="M253.91,103.2l7.72-2.56a2,2,0,0,1,1.11-.16c.42.13.65.63.92,1.2a2.39,2.39,0,0,0,3.75,1.46,2.23,2.23,0,0,1,1.61-.26,2.26,2.26,0,0,1,.4.28,3.54,3.54,0,0,0,.55.39,3.13,3.13,0,0,0,1.85.16,2.52,2.52,0,0,1,1.27.06,2.33,2.33,0,0,1,.71.64,4.47,4.47,0,0,0,.42.45,4.15,4.15,0,0,0,3,1.08,15.5,15.5,0,0,0,3.5-.55l.44-.11a42.09,42.09,0,0,1,8.31-.79l20.17-.59a.49.49,0,0,0,.48-.51.52.52,0,0,0-.51-.49l-20.17.59a42.24,42.24,0,0,0-8.51.82l-.44.1c-2,.48-4.26,1-5.59-.27a4.14,4.14,0,0,1-.35-.38,2.57,2.57,0,0,0-2.85-1,2.24,2.24,0,0,1-1.28-.07,1.78,1.78,0,0,1-.38-.27,2.82,2.82,0,0,0-.61-.41,3,3,0,0,0-2.4.24,2.25,2.25,0,0,1-1.6.27c-.4-.18-.63-.68-.88-1.22a2.23,2.23,0,0,0-3.24-1.57l-7.72,2.56a.51.51,0,0,0-.32.63A.5.5,0,0,0,253.91,103.2Z"/><path class="cls-10" d="M251.34,114.16l12.7-.59a2.69,2.69,0,0,1,1.39.17.72.72,0,0,1,.35.45.32.32,0,0,1,0,.26.51.51,0,0,0,0,.59.49.49,0,0,0,.57.15c3-1.1,6-2.13,9-3a10.3,10.3,0,0,0,.8,3.14.5.5,0,0,0,.38.29h.08a.52.52,0,0,0,.38-.17A17.56,17.56,0,0,1,279.6,113a3.07,3.07,0,0,1,.3,1.18.47.47,0,0,0,.26.42.48.48,0,0,0,.49,0,4.89,4.89,0,0,0,1.55-1.45q1.55.26,3.09.48a90.19,90.19,0,0,0,24.56.18.49.49,0,0,0,.43-.56.49.49,0,0,0-.56-.43,88.94,88.94,0,0,1-24.28-.18c-1.14-.16-2.27-.35-3.4-.53a.48.48,0,0,0-.51.24,4.06,4.06,0,0,1-.77.93,3.9,3.9,0,0,0-.6-1.29.46.46,0,0,0-.32-.2.51.51,0,0,0-.38.08,18.24,18.24,0,0,0-2.62,2.27,9.51,9.51,0,0,1-.48-2.68.5.5,0,0,0-.64-.47c-3,.89-6,1.89-9,3v0a1.78,1.78,0,0,0-.83-1.09,3.62,3.62,0,0,0-1.93-.29l-12.7.59a.49.49,0,0,0-.47.52A.5.5,0,0,0,251.34,114.16Z"/><path class="cls-10" d="M264.31,127.08c.95-.16,2.07,0,2.29.68a3.29,3.29,0,0,1,.07.36,1.52,1.52,0,0,0,.57,1.15,1.08,1.08,0,0,0,.65.2,2.35,2.35,0,0,0,1-.27l4.24-2a1.33,1.33,0,0,1,.59-.18,1.2,1.2,0,0,1,.47.28c.12.09.24.18.37.26a3.87,3.87,0,0,0,2.1.38c3.23-.08,6.45-.28,9.57-.48,4.08-.26,8.3-.53,12.54-.51h0a.5.5,0,0,0,.5-.49.51.51,0,0,0-.5-.51c-4.28,0-8.52.25-12.62.51-3.1.2-6.31.4-9.52.48a3,3,0,0,1-1.56-.24,2.83,2.83,0,0,1-.28-.2,2,2,0,0,0-.95-.47,2,2,0,0,0-1.15.27l-4.25,2c-.43.21-.58.18-.63.15s-.11-.29-.15-.49a2.77,2.77,0,0,0-.1-.5c-.43-1.37-2.1-1.59-3.41-1.37a69,69,0,0,1-9.79.64h-.7a.5.5,0,0,0-.49.51.52.52,0,0,0,.51.49h.7A70,70,0,0,0,264.31,127.08Z"/><path class="cls-10" d="M286.52,141a82.9,82.9,0,0,1,20.09-.68.48.48,0,0,0,.54-.45.5.5,0,0,0-.45-.54,83.83,83.83,0,0,0-20.33.68c-.52.08-1.12,0-1.19-.21a.5.5,0,0,1,0-.17,1.44,1.44,0,0,0-.14-.56.94.94,0,0,0-.62-.5,2.27,2.27,0,0,0-1.69.52,7.3,7.3,0,0,1-3.6.88l-8.68.6a1.77,1.77,0,0,1-1.3-.39s0-.05,0-.11a.52.52,0,0,0,0-.47.54.54,0,0,0-.41-.24l-8.64-.27c-2.12-.07-4.7.1-5.81,2.07a.5.5,0,0,0,.19.68.53.53,0,0,0,.24.06.5.5,0,0,0,.44-.25c.85-1.5,3.07-1.62,4.91-1.56l8.11.25a.88.88,0,0,0,.17.4,2.63,2.63,0,0,0,2.19.83l8.68-.61a8.24,8.24,0,0,0,4.09-1,1.83,1.83,0,0,1,.86-.39.45.45,0,0,1,0,.18,1.51,1.51,0,0,0,.06.36C284.44,140.89,285.28,141.23,286.52,141Z"/><path class="cls-10" d="M173.08,153.3a14.52,14.52,0,0,1,5.94.34l.19.05a4.61,4.61,0,0,0,1.71.24,4.49,4.49,0,0,0,1.7-.65,4.44,4.44,0,0,1,1.18-.51,4.34,4.34,0,0,1,2.25.43,9.67,9.67,0,0,0,1.22.4c2.6.65,5.11-.58,7.48-2l.6,1.59a.5.5,0,0,0,1-.1,1.47,1.47,0,0,1,2.49-.51.51.51,0,0,0,.64.18,5.43,5.43,0,0,1,3.46.09,51.61,51.61,0,0,0,17,1,.5.5,0,0,0,.44-.55.48.48,0,0,0-.55-.44,50.89,50.89,0,0,1-16.72-1,6.75,6.75,0,0,0-3.7-.16,2.38,2.38,0,0,0-2.17-.57,2.59,2.59,0,0,0-1.31.69l-.43-1.15a.54.54,0,0,0-.31-.3.51.51,0,0,0-.42,0c-2.34,1.45-4.82,2.82-7.23,2.21a11,11,0,0,1-1.11-.36,4,4,0,0,0-4.26.14,3.68,3.68,0,0,1-1.33.52,3.61,3.61,0,0,1-1.33-.21l-.2-.05a15.63,15.63,0,0,0-6.35-.36.5.5,0,0,0,.15,1Z"/><path class="cls-10" d="M220.26,163.82l-20.82.22a77.81,77.81,0,0,0-9.12.46c-.89.12-1.78.27-2.68.41a30.89,30.89,0,0,1-6.36.62,1.05,1.05,0,0,1-.69-.18,1.1,1.1,0,0,1-.17-.39,2.1,2.1,0,0,0-.36-.74,2,2,0,0,0-1.59-.52h-4.29a.5.5,0,0,0-.5.5.52.52,0,0,0,.5.5h4.29a.7.7,0,0,1,1,.56,1.85,1.85,0,0,0,.38.77,1.91,1.91,0,0,0,1.38.5H182a35.5,35.5,0,0,0,5.85-.64c.88-.15,1.76-.29,2.64-.41a75.52,75.52,0,0,1,9-.45l20.81-.22a.5.5,0,0,0,0-1Z"/><path class="cls-10" d="M223.7,175.24a.5.5,0,0,0-.56-.44,103.9,103.9,0,0,1-20.41.53h-.11a9.61,9.61,0,0,0-2.78.06l-.73.2a3.61,3.61,0,0,1-1.33.24,3.75,3.75,0,0,1-1.25-.39,4,4,0,0,0-1.92-.46,4.36,4.36,0,0,0-1.93.83c-.63.4-1.17.75-1.7.59a2.24,2.24,0,0,1-.64-.37l-.35-.23c-1.16-.74-3.75-1.12-5.1-.22a51.59,51.59,0,0,1-10.23-.78.5.5,0,0,0-.58.4.51.51,0,0,0,.41.58,52.07,52.07,0,0,0,10.58.79.48.48,0,0,0,.3-.11c.84-.66,3.08-.45,4.09.18l.29.21a3,3,0,0,0,1,.51,1.68,1.68,0,0,0,.54.08,3.79,3.79,0,0,0,2-.79,3.62,3.62,0,0,1,1.47-.67,3.1,3.1,0,0,1,1.44.38,5,5,0,0,0,1.59.47,4.61,4.61,0,0,0,1.67-.28c.22-.06.44-.13.66-.18a9,9,0,0,1,2.5-.05h.1a104.51,104.51,0,0,0,20.62-.53A.49.49,0,0,0,223.7,175.24Z"/><path class="cls-10" d="M230.32,190.75h0l-3.92,0a1.76,1.76,0,0,1-.75-.09,1.72,1.72,0,0,1-.37-.32,4,4,0,0,0-.38-.34,3.46,3.46,0,0,0-2.46-.44,3.62,3.62,0,0,1-1.6-.11l-.15-.06a1.75,1.75,0,0,0-.69-.2,1.72,1.72,0,0,0-.88.27c-.17.09-.34.2-.51.3a3.84,3.84,0,0,1-1.45.66,1.11,1.11,0,0,1-.89-.33.42.42,0,0,1-.13-.38.51.51,0,0,0-.13-.44.49.49,0,0,0-.43-.15,14.48,14.48,0,0,0-3.6,1,.51.51,0,0,0-.26.66.49.49,0,0,0,.66.26,13.8,13.8,0,0,1,2.81-.85,1.71,1.71,0,0,0,.35.59,2.11,2.11,0,0,0,1.75.63,4.6,4.6,0,0,0,1.85-.8c.15-.1.31-.19.47-.28a.82.82,0,0,1,.36-.14.89.89,0,0,1,.31.11l.18.08a4.62,4.62,0,0,0,2,.18,2.58,2.58,0,0,1,1.79.24,2.11,2.11,0,0,1,.27.25,2.66,2.66,0,0,0,.62.5,2.35,2.35,0,0,0,1.1.2h.12l3.91,0a.5.5,0,1,0,0-1Z"/><path class="cls-10" d="M225.62,195.9a12.21,12.21,0,0,0-4.74.89,10.33,10.33,0,0,1-4.62.79,2.41,2.41,0,0,1-1.81-1,.5.5,0,1,0-.86.51,3.43,3.43,0,0,0,2.53,1.48,5.42,5.42,0,0,0,.89.07,13.65,13.65,0,0,0,4.18-.9,11.39,11.39,0,0,1,4.35-.84.5.5,0,0,0,.54-.46A.51.51,0,0,0,225.62,195.9Z"/><path class="cls-10" d="M171.39,190a.44.44,0,0,0,.16,0l4.27-1.48c.41-.15.53-.09.54-.09a.81.81,0,0,1,0,.21,1.26,1.26,0,0,0,.36.73,1.28,1.28,0,0,0,1.26.13l3.64-1.14a1.41,1.41,0,0,1,.36-.07,1,1,0,0,1,.29.29l.12.15a2.81,2.81,0,0,0,3.13.74.5.5,0,0,0,.27-.66.51.51,0,0,0-.65-.27,1.79,1.79,0,0,1-2-.47l-.1-.12a1.61,1.61,0,0,0-.8-.62,1.63,1.63,0,0,0-.93.08l-3.64,1.14c-.21.06-.29.06-.29.08s0-.13-.05-.19a1.47,1.47,0,0,0-.24-.62c-.23-.29-.7-.58-1.66-.25L171.23,189a.5.5,0,0,0,.16,1Z"/><path class="cls-10" d="M170.25,197.06a6.21,6.21,0,0,0,5.42,0l.18-.08a1.76,1.76,0,0,1,.86-.28,1.63,1.63,0,0,1,.75.49c.12.11.24.22.37.32a2.84,2.84,0,0,0,2.84.42,3.87,3.87,0,0,0,.79-.48,5.69,5.69,0,0,1,.52-.33,1.28,1.28,0,0,1,.53-.12,5.47,5.47,0,0,1-.83,1.2.5.5,0,0,0,.37.84.49.49,0,0,0,.37-.16,6.2,6.2,0,0,0,1.2-1.92.49.49,0,0,0-.09-.52,1.64,1.64,0,0,0-2-.21,5.47,5.47,0,0,0-.65.41,3.11,3.11,0,0,1-.61.37,1.84,1.84,0,0,1-1.83-.29l-.31-.27a2.38,2.38,0,0,0-1.29-.74,2.48,2.48,0,0,0-1.44.37l-.17.09a5.22,5.22,0,0,1-4.53,0,.5.5,0,0,0-.67.22A.49.49,0,0,0,170.25,197.06Z"/><path class="cls-10" d="M188.15,204.29c-2.77-1.08-5.79-.86-8.71-.64l-1.72.12c-2.5.14-5.05.07-7.52,0a.55.55,0,0,0-.51.48.5.5,0,0,0,.49.52c2.49.06,5.06.13,7.6,0q.87,0,1.74-.12c2.8-.2,5.71-.42,8.27.59a.57.57,0,0,0,.18,0,.5.5,0,0,0,.18-1Z"/><path class="cls-10" d="M204.4,113.13a.5.5,0,0,0,.35.62.49.49,0,0,0,.24,0,.5.5,0,0,0,.37-.36,30.21,30.21,0,0,1,5-10.2.5.5,0,0,0-.09-.7.5.5,0,0,0-.7.1A30.92,30.92,0,0,0,204.4,113.13Z"/><path class="cls-10" d="M209.21,111.78a.49.49,0,0,0,.29,0,.52.52,0,0,0,.36-.3,47.37,47.37,0,0,1,3.25-6.44.46.46,0,0,0,.39-.21.52.52,0,0,0,.06-.56.61.61,0,0,0-.49-.31.75.75,0,0,0-.68.34,47.75,47.75,0,0,0-3.46,6.8A.5.5,0,0,0,209.21,111.78Z"/><path class="cls-10" d="M213.82,111.11a.53.53,0,0,0,.3,0,.54.54,0,0,0,.36-.3l1.45-3.56a.5.5,0,0,0-.92-.38l-1.46,3.56A.51.51,0,0,0,213.82,111.11Z"/><path class="cls-10" d="M314.58,168.63a20.69,20.69,0,0,0-16.09-10.91,26.62,26.62,0,0,0-18.74,5.35A24.28,24.28,0,0,0,270,155.6c-6.06-2.4-12.43-1.45-18.42,2.73a20.66,20.66,0,0,0-9.12,17.17c-.08,8.22,4.33,16.57,11.51,21.79a17.24,17.24,0,0,0,10.25,3.21,23,23,0,0,0,12.41-3.87c.54-.35,1.06-.72,1.56-1.1a18,18,0,0,0,12.71,5.72c.51,0,1,0,1.54-.08,10-1,19-6.48,22.91-13.93C318.35,181.47,318.1,175,314.58,168.63Zm-38.52,27.16c-7.21,4.68-15.67,5-21.53.69-6.93-5-11.18-13.07-11.1-21a19.7,19.7,0,0,1,8.69-16.35c5.7-4,11.75-4.89,17.48-2.62a23.59,23.59,0,0,1,9.33,7.17,28.2,28.2,0,0,0-3.34,3.13c-5.15,5.68-5.85,14.56-1.78,22.6a24.7,24.7,0,0,0,3.67,5.37C277,195.14,276.55,195.47,276.06,195.79Zm3.49-31.31a32,32,0,0,1,5.75,12.6c1.28,6-1.46,12.52-7,17.1a23.49,23.49,0,0,1-3.55-5.2c-3.89-7.67-3.25-16.1,1.62-21.48A26.24,26.24,0,0,1,279.55,164.48Zm34.88,22.3c-3.7,7-12.59,12.43-22.12,13.4-4.8.49-9.6-1.5-13.36-5.28,5.83-4.81,8.68-11.63,7.33-18a33.07,33.07,0,0,0-5.91-13,26.23,26.23,0,0,1,15.41-5.28,22.53,22.53,0,0,1,2.6.15,19.75,19.75,0,0,1,15.33,10.4C317.05,175.21,317.3,181.32,314.43,186.78Z"/><path class="cls-10" d="M274,173.27l-.7-.71A53.55,53.55,0,0,1,280,167l.58.82A52.42,52.42,0,0,0,274,173.27Z"/><path class="cls-10" d="M273.22,178.61l-.68-.72,5-4.75a16.78,16.78,0,0,1,4.11-3.14l.44.9a16.35,16.35,0,0,0-3.87,3Z"/><rect class="cls-10" x="273.89" y="182.35" width="10.72" height="1" transform="translate(-54 201.82) rotate(-36.47)"/><path class="cls-10" d="M276.92,190.35l-.77-.64a24.42,24.42,0,0,1,5.84-5.12l.53.85A23.44,23.44,0,0,0,276.92,190.35Z"/></g><path class="cls-8" d="M394,109.27s2.49,1.28,2.48,3.13c0,0,5.57-2.5,7.61.94s-.75,4.26-.75,4.26,5.23,2.26,5.95,5.06-3.21,4.65-3.21,4.65.46,8.7-5.8,10.08-12.11,2.76-15.59-.61-5.38-7.51-3.53-10.36a2.14,2.14,0,0,1-2-1.33c-.69-1.43,2.43-3.38,2.43-3.38s-.64-.17.46-4.29S394,109.27,394,109.27Z"/><path class="cls-8" d="M371.7,106.44c-2.28-1.14-1.78-5.15-1.78-5.15s-2.51,1-2.76-2S370.52,94,370.52,94s-1.85.32,0-3.32,9.54-7.1,16.22-3.68a7.34,7.34,0,0,1,5.93-.46c3.58,1.16,3.14,3.75,3.14,3.75s3.94,1.27,4.83,7.18-.62,12.64-2.54,12.22c0,0-.53,4.41-7.47,8s-13.71-6.37-12.74-12.3C377.89,105.31,374.23,107.7,371.7,106.44Z"/><path class="cls-16" d="M370.77,145.79a101.94,101.94,0,0,1-11.57,7.32,68.92,68.92,0,0,1-6.35,3,29.93,29.93,0,0,1-7.52,2.19c-.36,0-.76.09-1.18.11-.23,0-.37,0-.66,0s-.6,0-.9,0a11,11,0,0,1-2.69-.64,20.55,20.55,0,0,1-3.7-1.88,46,46,0,0,1-5.71-4.29,82,82,0,0,1-9.45-9.74,2.64,2.64,0,0,1,3.53-3.86l.07,0c3.52,2.43,7.11,4.89,10.65,7.09a51.58,51.58,0,0,0,5.24,2.91,11.65,11.65,0,0,0,2.26.83c.3.08.51.08.5.05a.11.11,0,0,0-.08,0l.16,0a2.29,2.29,0,0,0,.44-.09,25.77,25.77,0,0,0,4.9-1.92c1.76-.88,3.55-1.87,5.33-2.92,3.54-2.1,7.17-4.46,10.56-6.75l.09-.07a5.29,5.29,0,0,1,6.08,8.66Z"/><path class="cls-12" d="M373.6,132.66c-8.51-1.54-11.82,3.33-21.81,11.8a18,18,0,0,0,8,13.32S380.62,144.22,373.6,132.66Z"/><path class="cls-17" d="M373.2,144.23c-3.6,6.63-11.34,12.16-13,13.32l-.34.23a18,18,0,0,1-8-13.32c10-8.47,13.31-13.34,21.81-11.8C375.93,136.49,375.2,140.53,373.2,144.23Z"/><path class="cls-18" d="M315.91,132.61l2.61-.18a3,3,0,0,1,2.55,1.11l2.91,3.55a5.65,5.65,0,0,1,1.08,5.08l-.3,1.1c-4.3.58-9.38-2-9.38-2l-1.53-.57a2.52,2.52,0,0,1-1.58-3.22l1.07-3.05A2.91,2.91,0,0,1,315.91,132.61Z"/><path class="cls-13" d="M373.2,144.23c-3.6,6.63-11.34,12.16-13,13.32.6-3,2.5-9.42,8.12-13.51A3.65,3.65,0,0,1,373.2,144.23Z"/><path class="cls-12" d="M403.61,133.45a163.08,163.08,0,0,0-3.32,17.17c-.46,3.22-.91,6.81-1.27,10.69a201,201,0,0,0-.86,23.74H364.32s-5.34-39.58,3.48-52.34C367.8,132.71,385.15,124.54,403.61,133.45Z"/><path class="cls-17" d="M403.61,133.45a163.08,163.08,0,0,0-3.32,17.17c-.46,3.22-.91,6.81-1.27,10.69a201,201,0,0,0-.86,23.74H364.32s-5.34-39.58,3.48-52.34C367.8,132.71,385.15,124.54,403.61,133.45Z"/><path class="cls-13" d="M400.29,150.62c-.46,3.22-.91,6.81-1.27,10.69a26.35,26.35,0,0,1-1-18.25Z"/><path class="cls-18" d="M383.84,163.44l2.61,0a3,3,0,0,1,2.46,1.29l2.64,3.75a5.66,5.66,0,0,1,.71,5.15l-.38,1.07c-4.34.27-9.22-2.63-9.22-2.63l-1.48-.68a2.52,2.52,0,0,1-1.34-3.33l1.3-3A2.9,2.9,0,0,1,383.84,163.44Z"/><path class="cls-12" d="M386.1,127c10.62,0,11.95,8.73,11.95,8.73l-5-2.13-14.58,9.75-3.59-9.84-4.49.83S376.88,127,386.1,127Z"/><path class="cls-19" d="M386.1,127c10.62,0,11.95,8.73,11.95,8.73l-5-2.13-14.58,9.75-3.59-9.84-4.49.83S376.88,127,386.1,127Z"/><path class="cls-18" d="M379,142.72l13.69-11.9c-3.33-3.41-1.63-12.78-.25-17.89l-10.37,8.33c.69,4,.53,8.2-5.28,9.56C376.77,130.82,379,142.69,379,142.72Z"/><path class="cls-13" d="M388.19,116.32l-6.14,4.93a16,16,0,0,1,.28,2.82c2.2-.31,5.37-2.7,5.78-5A7.55,7.55,0,0,0,388.19,116.32Z"/><path class="cls-18" d="M394.11,100.53c.15,8.4.39,12-3.42,16.78-5.74,7.27-15.91,6.15-18.53-1.91-2.35-7.25-2.2-19.77,5.58-24.16A10.76,10.76,0,0,1,394.11,100.53Z"/><path class="cls-8" d="M386,96.13c5.65,4.83-2.15,13.35,6.94,11.07s2.69-14.45-3.36-16.27S386,96.13,386,96.13Z"/><path class="cls-8" d="M381.58,104.53c0,.7-.29,1.32-.73,1.38s-.84-.47-.88-1.17.28-1.33.72-1.38S381.53,103.82,381.58,104.53Z"/><path class="cls-8" d="M373.22,105.75c0,.7-.29,1.32-.73,1.38s-.84-.47-.89-1.17.29-1.33.73-1.38S373.17,105,373.22,105.75Z"/><path class="cls-8" d="M372.53,104.59l-1.66-.27S371.79,105.53,372.53,104.59Z"/><path class="cls-20" d="M375.62,106.6a20.78,20.78,0,0,1-2.15,4.81,2.79,2.79,0,0,0,2.45.15Z"/><path class="cls-8" d="M380,113.66a7.36,7.36,0,0,1-1.14.25.19.19,0,0,1-.21-.18.22.22,0,0,1,.19-.24,5.9,5.9,0,0,0,4.26-2.75.2.2,0,0,1,.27-.1.21.21,0,0,1,.08.28A6.21,6.21,0,0,1,380,113.66Z"/><path class="cls-18" d="M396.5,108.17a5.75,5.75,0,0,1-2.81,3.72c-1.78.89-3-1.1-2.86-3.38.16-2.06,1.28-5,3.22-4.91S397.06,106.08,396.5,108.17Z"/><path class="cls-8" d="M383.12,100.37a.33.33,0,0,1-.3-.06,3,3,0,0,0-2.83-.46.38.38,0,0,1-.51-.23.44.44,0,0,1,.25-.54,3.76,3.76,0,0,1,3.58.54.43.43,0,0,1,.07.58A.44.44,0,0,1,383.12,100.37Z"/><path class="cls-8" d="M370.55,102.2a.39.39,0,0,1-.3,0,.4.4,0,0,1-.13-.56,4.35,4.35,0,0,1,3.11-2.24.38.38,0,0,1,.41.38.44.44,0,0,1-.39.45,3.46,3.46,0,0,0-2.44,1.8A.46.46,0,0,1,370.55,102.2Z"/><path class="cls-8" d="M380.89,103.37l-1.66-.27S380.15,104.31,380.89,103.37Z"/><path class="cls-8" d="M380.6,92.6s1.9,6.77,3.72,3.32c0,0,.13,5.1,1.58,5.61s1.58-1.15,1.58-1.15.73,4.08,3.33,4.19c1.37.06,3.13-3.77,3.25-4.95.23-2.36-1.73-6.19-2.86-7.93-1.59-2.45-5.6-3.22-11.35-2.7s-10.16,5.71-9.2,8.36,5.76-3.87,5.76-3.87-.62,1.38.36,1.65S380.6,92.6,380.6,92.6Z"/><path class="cls-16" d="M409.76,142.47c.79,2.13,1.41,4.16,2.07,6.25s1.21,4.18,1.73,6.29,1,4.23,1.45,6.38.81,4.3,1.16,6.47l0,.26a4.73,4.73,0,0,1,.05.75,7.51,7.51,0,0,1-1.32,4,8,8,0,0,1-2.66,2.39,13.14,13.14,0,0,1-4.52,1.43,30.83,30.83,0,0,1-7.19,0,59.46,59.46,0,0,1-6.54-1.08c-2.14-.5-4.2-1-6.32-1.73a2.64,2.64,0,0,1,.91-5.15h.09c2,.05,4.08.14,6.1.13s4,0,6-.14a27.7,27.7,0,0,0,5.32-.75,3.38,3.38,0,0,0,1.39-.62c0-.05-.15,0-.38.29a2.21,2.21,0,0,0-.41,1.05l.09,1c-1-4-2.14-7.95-3.34-11.92l-1.82-6L399.77,146l0-.06a5.3,5.3,0,0,1,10-3.45Z"/><path class="cls-12" d="M401.49,132.68c5.69.88,8.83,5.31,13.48,16.77-5.38,9.27-13.4,10.53-13.4,10.53S393.66,145.93,401.49,132.68Z"/><path class="cls-17" d="M401.49,132.68c5.69.88,8.83,5.31,13.48,16.77-5.38,9.27-13.4,10.53-13.4,10.53S393.66,145.93,401.49,132.68Z"/><path class="cls-13" d="M378.79,146.25a.67.67,0,1,1-.67-.66A.67.67,0,0,1,378.79,146.25Z"/><path class="cls-13" d="M377.46,156a.67.67,0,1,1-.67-.66A.67.67,0,0,1,377.46,156Z"/><path class="cls-13" d="M376.68,166.26a.66.66,0,0,1-.67.66.65.65,0,0,1-.66-.66.66.66,0,0,1,.66-.67A.67.67,0,0,1,376.68,166.26Z"/><path class="cls-13" d="M376.68,177.11a.67.67,0,0,1-.67.67.66.66,0,0,1-.66-.67.65.65,0,0,1,.66-.66A.66.66,0,0,1,376.68,177.11Z"/><path class="cls-10" d="M321.8,134.45l-14,6.37-2.14.15,1.51-1.52,14-6.38a.57.57,0,0,1,.74.28l.16.36A.56.56,0,0,1,321.8,134.45Z"/><polygon class="cls-8" points="363.42 186.96 363.98 182.23 398.58 182.23 399.85 186.36 363.42 186.96"/><path class="cls-12" d="M331.83,359c6.56,0,7.43-.1,11.12-.22,3.16-.11,3.91.28,6.45.22,2.12,0,2.05-2.07,1.39-4.41-.33-1.17-.83-3.65-1.28-5.55l-9.62-.69c-1.35,2.58-4.41,6.26-8.11,6.76C328.25,355.56,329.21,359,331.83,359Z"/><path class="cls-12" d="M379.4,359c6.56,0,7.43-.1,11.12-.22,3.16-.11,3.91.28,6.45.22,2.12,0,2-2.07,1.39-4.41-.33-1.17-.83-3.65-1.28-5.55l-9.62-.69c-1.36,2.58-4.41,6.26-8.11,6.76C375.82,355.56,376.78,359,379.4,359Z"/><path class="cls-21" d="M331.83,359c6.56,0,7.43-.1,11.12-.22,3.16-.11,3.91.28,6.45.22,2.12,0,2.05-2.07,1.39-4.41-.33-1.17-.83-3.65-1.28-5.55l-9.62-.69c-1.35,2.58-4.41,6.26-8.11,6.76C328.25,355.56,329.21,359,331.83,359Z"/><path class="cls-21" d="M379.4,359c6.56,0,7.43-.1,11.12-.22,3.16-.11,3.91.28,6.45.22,2.12,0,2-2.07,1.39-4.41-.33-1.17-.83-3.65-1.28-5.55l-9.62-.69c-1.36,2.58-4.41,6.26-8.11,6.76C375.82,355.56,376.78,359,379.4,359Z"/><path class="cls-8" d="M388.46,183.61H364c-1.48,9.08-8.37,52.36-9.62,75.92-1.48,27.74-10.37,72.17-15.07,89.53,1.32,1.19,7.54,1.69,10.48.22,0,0,25.66-51.24,22.33-83.28C391.49,211.35,389.09,187.64,388.46,183.61Z"/><path class="cls-13" d="M378.43,246.78c3.05-10.07,5.25-18.78,6.81-26.26-1.55-5.84-3.74-10.85-6.71-13.86C378.53,206.66,374.24,223,378.43,246.78Z"/><path class="cls-8" d="M398.49,183.61H373c1.75,13.44,7.14,54.43,10.47,76.09,4.22,27.45,4.76,71.51,3.7,89.46,1.54.9,7.15,2,10.18,1,0,0,14.32-55.53,4.81-87.78C410.15,203.75,400.08,186,398.49,183.61Z"/><polygon class="cls-8" points="387.94 186.11 399.39 186.11 398.69 182.85 387.94 182.85 387.94 186.11"/><polygon class="cls-8" points="367.14 182.85 363.71 182.85 363.42 186.11 367.14 186.11 367.14 182.85"/><rect class="cls-8" x="368.28" y="182.85" width="18.54" height="3.26"/><polygon class="cls-17" points="387.94 186.11 399.39 186.11 398.69 182.85 387.94 182.85 387.94 186.11"/><polygon class="cls-17" points="367.14 182.85 363.71 182.85 363.42 186.11 367.14 186.11 367.14 182.85"/><rect class="cls-17" x="368.28" y="182.85" width="18.54" height="3.26"/><rect class="cls-10" x="372.88" y="182.6" width="6.26" height="3.76" rx="0.56"/><rect class="cls-8" x="113.18" y="240.3" width="4.76" height="68.78" transform="translate(-36.2 18.22) rotate(-7.8)"/><rect class="cls-8" x="83.7" y="240.3" width="4.76" height="68.78" transform="translate(-36.47 14.22) rotate(-7.8)"/><g class="cls-22"><rect class="cls-10" x="113.18" y="240.3" width="4.76" height="68.78" transform="translate(-36.2 18.22) rotate(-7.8)"/></g><g class="cls-23"><rect class="cls-10" x="83.7" y="240.3" width="4.76" height="68.78" transform="translate(-36.47 14.22) rotate(-7.8)"/></g><polygon class="cls-8" points="116.8 358.62 123.43 358.62 124.24 323.57 124.59 308.77 115.65 308.77 115.99 323.57 116.8 358.62"/><polygon class="cls-17" points="116.8 358.62 123.43 358.62 124.24 323.57 124.59 308.77 115.65 308.77 115.99 323.57 116.8 358.62"/><polygon class="cls-24" points="124.59 308.77 124.24 323.98 115.99 323.98 115.65 308.77 124.59 308.77"/><polygon class="cls-8" points="150.65 358.62 147.77 309.81 140 309.81 144.04 358.62 150.65 358.62"/><polygon class="cls-25" points="144.03 358.62 150.65 358.62 148.2 317.04 147.78 309.72 140.01 309.72 140.6 317.04 144.03 358.62"/><polygon class="cls-24" points="140.01 309.72 140.6 317.33 148.2 317.33 147.78 309.72 140.01 309.72"/><polygon class="cls-8" points="96.19 358.62 100.22 309.81 92.46 309.81 89.57 358.62 96.19 358.62"/><polygon class="cls-25" points="96.2 358.62 99.62 317.04 100.22 309.72 92.45 309.72 92.02 317.04 89.58 358.62 96.2 358.62"/><polygon class="cls-24" points="100.22 309.72 99.62 317.33 92.02 317.33 92.45 309.72 100.22 309.72"/><path class="cls-8" d="M93.65,301.48h52.93a5.36,5.36,0,0,1,5.36,5.36v5.76a0,0,0,0,1,0,0H88.29a0,0,0,0,1,0,0v-5.76A5.36,5.36,0,0,1,93.65,301.48Z"/><path class="cls-8" d="M116.68,263.39H81.53a4.54,4.54,0,0,1-4.51-4l-2.47-19.3A2.78,2.78,0,0,1,77.3,237h35.16a4.54,4.54,0,0,1,4.51,4l2.47,19.3A2.78,2.78,0,0,1,116.68,263.39Z"/><path class="cls-26" d="M116.68,263.39H81.53a4.54,4.54,0,0,1-4.51-4l-2.47-19.3A2.78,2.78,0,0,1,77.3,237h35.16a4.54,4.54,0,0,1,4.51,4l2.47,19.3A2.78,2.78,0,0,1,116.68,263.39Z"/><path class="cls-27" d="M93.65,301.48h52.93a5.36,5.36,0,0,1,5.36,5.36v5.76a0,0,0,0,1,0,0H88.29a0,0,0,0,1,0,0v-5.76A5.36,5.36,0,0,1,93.65,301.48Z"/><rect class="cls-8" x="85.24" y="307.03" width="69.74" height="5.56" rx="2.16"/><rect class="cls-26" x="85.24" y="307.03" width="69.74" height="5.56" rx="2.16"/><g id="_Group_" data-name="&lt;Group&gt;"><path class="cls-28" d="M138.18,238.52l6.32,6.54c2.09,2.16,4.23,4.34,6.32,6.2l.76.65.37.31.33.24a5.83,5.83,0,0,0,.61.43c.19.13.52.28.77.43,1.18.61,2.57,1.18,3.94,1.76,2.78,1.14,5.66,2.3,8.48,3.55h0a2.2,2.2,0,0,1-1,4.2,66.37,66.37,0,0,1-9.49-1.2,40.71,40.71,0,0,1-4.85-1.24c-.45-.16-.85-.3-1.35-.52l-.74-.35c-.23-.12-.44-.25-.66-.38l-.65-.39-.56-.38c-.37-.26-.75-.51-1.08-.77a86,86,0,0,1-7.37-6.36c-2.29-2.21-4.46-4.44-6.6-6.82a4.36,4.36,0,0,1,6.38-6Z"/><path class="cls-29" d="M138.18,238.52l6.32,6.54c2.09,2.16,4.23,4.34,6.32,6.2l.76.65.37.31.33.24a5.83,5.83,0,0,0,.61.43c.19.13.52.28.77.43,1.18.61,2.57,1.18,3.94,1.76,2.78,1.14,5.66,2.3,8.48,3.55h0a2.2,2.2,0,0,1-1,4.2,66.37,66.37,0,0,1-9.49-1.2,40.71,40.71,0,0,1-4.85-1.24c-.45-.16-.85-.3-1.35-.52l-.74-.35c-.23-.12-.44-.25-.66-.38l-.65-.39-.56-.38c-.37-.26-.75-.51-1.08-.77a86,86,0,0,1-7.37-6.36c-2.29-2.21-4.46-4.44-6.6-6.82a4.36,4.36,0,0,1,6.38-6Z"/><path class="cls-30" d="M169.17,257.9l-1.84-1.11a2.49,2.49,0,0,0-2.28-.16l-3.47,1.49a4.68,4.68,0,0,0-2.72,3.31l-.19.91c2.92,2.06,7.59,2.13,7.59,2.13l1.33.16a2.07,2.07,0,0,0,2.38-1.76l.37-2.63A2.4,2.4,0,0,0,169.17,257.9Z"/><path class="cls-29" d="M169.17,257.9l-1.84-1.11a2.49,2.49,0,0,0-2.28-.16l-3.47,1.49a4.68,4.68,0,0,0-2.72,3.31l-.19.91c2.92,2.06,7.59,2.13,7.59,2.13l1.33.16a2.07,2.07,0,0,0,2.38-1.76l.37-2.63A2.4,2.4,0,0,0,169.17,257.9Z"/><polygon class="cls-30" points="161.54 341.34 160.53 347.64 159.61 353.46 151.18 353.46 151.91 346.02 152.6 338.88 161.54 341.34"/><path class="cls-8" d="M159.13,350.16l-8.56-.53a.53.53,0,0,0-.59.48h0l-.84,6.75a1.35,1.35,0,0,0,1.24,1.43c3,.14,4.43.05,8.2.26a70.33,70.33,0,0,0,10,.32c3.19-.31,2.8-3.45,1.43-3.61-3.27-.37-7.6-2.77-9.64-4.59A2.17,2.17,0,0,0,159.13,350.16Z"/><path class="cls-12" d="M161.76,351.63a9.77,9.77,0,0,1-2-.4.18.18,0,0,1-.13-.15.25.25,0,0,1,.08-.18c.26-.15,2.51-1.49,3.42-1.07a.66.66,0,0,1,.38.53.93.93,0,0,1-.28,1A2.06,2.06,0,0,1,161.76,351.63Zm1.2-1.44c-.48-.23-1.79.33-2.71.84,1.34.35,2.35.37,2.73,0a.67.67,0,0,0,.17-.62.32.32,0,0,0-.19-.26Z"/><path class="cls-12" d="M159.78,351.23a.11.11,0,0,1-.08,0,.21.21,0,0,1-.09-.15c0-.06,0-2.29.78-3a.94.94,0,0,1,.77-.2.69.69,0,0,1,.62.58c.12.83-1.12,2.36-1.91,2.76A.1.1,0,0,1,159.78,351.23Zm1.23-3a.52.52,0,0,0-.39.14,3.9,3.9,0,0,0-.64,2.38,3.71,3.71,0,0,0,1.44-2.23c0-.1-.07-.23-.32-.28Z"/><polygon class="cls-24" points="161.54 341.34 160.53 347.64 151.91 346.02 152.6 338.88 161.54 341.34"/><path class="cls-12" d="M162.71,346l-.31.83-13.13-3.17s7.22-30.14,4.51-34c-2.29-3.28-13.16-4-28.48-4.73l-9-.45c-20-1.05,21.78-21.3,21.78-21.3s26.73,1.12,33.7,10.32C178.19,301.89,164.9,339.88,162.71,346Z"/><path class="cls-24" d="M158.4,343l4.31,3-.31.83-13.13-3.17s7.22-30.14,4.51-34c-2.29-3.28-13.16-4-28.48-4.73l-1.79-5.25,11.43-13.31s24.5,3,29.38,12.74S158.4,343,158.4,343Z"/><path class="cls-12" d="M149.25,248.5,141.59,257l-.18-.09-.23-.11s0,0,0,0h-.05c-.3-.15-.74-.38-1.27-.68l-.52-.28-.13-.08-.55-.32-.73-.44a29.68,29.68,0,0,1-4.09-2.93c-.21-.2-.42-.39-.61-.59a8.34,8.34,0,0,1-1.06-1.24,1.13,1.13,0,0,1-.12-.21.64.64,0,0,1-.08-.14,2.22,2.22,0,0,1-.14-.31l-.09-.23-.06-.19-.12-.4c0-.15-.06-.3-.1-.46s-.05-.31-.08-.47,0-.09,0-.13h0c0-.12,0-.24-.05-.36s0-.35-.05-.53,0-.36,0-.54,0-.38,0-.57c-.13-5.27,1.6-12.51,4.14-11.68,5.07,1.68,11.37,10.64,13.31,13.56C149,248.16,149.25,248.5,149.25,248.5Z"/><path class="cls-11" d="M149.25,248.5,141.59,257l-.18-.09-.23-.11,0,0h0c-.3-.15-.74-.38-1.27-.68l-.52-.28-.13-.08-.55-.32-.73-.44a29.68,29.68,0,0,1-4.09-2.93c-.21-.2-.42-.39-.61-.59a8.34,8.34,0,0,1-1.06-1.24,1.13,1.13,0,0,1-.12-.21.64.64,0,0,1-.08-.14,2.22,2.22,0,0,1-.14-.31l-.09-.23-.06-.19-.12-.4c0-.15-.06-.3-.1-.46s-.05-.31-.08-.47,0-.09,0-.13h0c0-.12,0-.24-.05-.36s0-.35-.05-.53,0-.36,0-.54,0-.38,0-.57c-.13-5.27,1.6-12.51,4.14-11.68,5.07,1.68,11.37,10.64,13.31,13.56C149,248.16,149.25,248.5,149.25,248.5Z"/><polygon class="cls-12" points="150.11 248.86 142.56 258.37 141.1 257.7 140.59 257.47 141.13 256.81 141.19 256.74 148.65 247.58 148.85 247.33 150.11 248.86"/><path class="cls-24" d="M141.19,256.74a.28.28,0,0,1,0,.09s0,0,0,0a8.6,8.6,0,0,1-.08.86l-.51-.23.54-.66c-.3-.15-.74-.38-1.27-.68l-.52-.28-.13-.08-.55-.32-.73-.44a29.68,29.68,0,0,1-4.09-2.93c-.21-.2-.42-.39-.61-.59a8.34,8.34,0,0,1-1.06-1.24,1.13,1.13,0,0,1-.12-.21.64.64,0,0,1-.08-.14,2.22,2.22,0,0,1-.14-.31l-.09-.23-.06-.19-.12-.4c0-.15-.06-.3-.1-.46s-.05-.31-.08-.47,0-.09,0-.13h0l4.53-8.57S141.83,247.1,141.19,256.74Z"/><path class="cls-12" d="M96.88,279.46s-8.84,25,16.23,25,27.09-9.78,25-21.29Z"/><polygon class="cls-30" points="137.77 341.34 136.76 347.64 135.84 353.46 127.4 353.46 128.13 346.02 128.83 338.88 137.77 341.34"/><path class="cls-8" d="M135.36,350.16l-8.56-.53a.53.53,0,0,0-.6.48h0l-.84,6.75a1.35,1.35,0,0,0,1.25,1.43c3,.14,4.42.05,8.19.26a70.48,70.48,0,0,0,10.06.32c3.19-.31,2.8-3.45,1.42-3.61-3.27-.37-7.59-2.77-9.64-4.59A2.17,2.17,0,0,0,135.36,350.16Z"/><path class="cls-12" d="M138,351.63a10,10,0,0,1-2-.4.16.16,0,0,1-.12-.15.19.19,0,0,1,.08-.18c.25-.15,2.5-1.49,3.42-1.07a.68.68,0,0,1,.38.53,1,1,0,0,1-.28,1A2.08,2.08,0,0,1,138,351.63Zm1.21-1.44c-.49-.23-1.8.33-2.72.84,1.35.35,2.35.37,2.73,0a.62.62,0,0,0,.17-.62.33.33,0,0,0-.18-.26Z"/><path class="cls-12" d="M136,351.23a.09.09,0,0,1-.07,0,.19.19,0,0,1-.09-.15c0-.06,0-2.29.77-3a1,1,0,0,1,.78-.2.69.69,0,0,1,.61.58c.12.83-1.12,2.36-1.9,2.76A.12.12,0,0,1,136,351.23Zm1.24-3a.51.51,0,0,0-.39.14c-.49.41-.62,1.67-.65,2.38a3.71,3.71,0,0,0,1.44-2.23c0-.1-.06-.23-.31-.28Z"/><polygon class="cls-24" points="137.77 341.34 136.76 347.64 128.13 346.02 128.83 338.88 137.77 341.34"/><path class="cls-12" d="M148,293.44c-3.91-5.16-14-7.77-22.15-9.08L114.1,304.47c12.32.51,16.11,4.1,16.39,5.25,1.33,5.46-5,33.92-5,33.92l13.13,3.17S155,302.64,148,293.44Z"/><path class="cls-12" d="M94.46,284.36s4.59-33.69,7.79-40.61,8.36-16.36,30.72-10.89c0,0,8.48,2.39,7,12.84s-1.92,37.57-1.92,37.57Z"/><path class="cls-11" d="M140,245.7c-.43,3.08-.77,7.59-1,12.43-.06,1.12-.12,2.27-.18,3.42-.13,2.66-.24,5.34-.33,7.86,0,.44,0,.88-.05,1.31-.23,7-.33,12.55-.33,12.55l-43.62,1.1s4.59-33.71,7.79-40.61,8.36-16.37,30.72-10.89C133,232.87,141.45,235.25,140,245.7Z"/><path class="cls-12" d="M129.58,239.12l2.59-4.19,3.56,4.19s-1-11.13-13.95-11.38a6.45,6.45,0,0,0-6.56,4.38c2.27,3.66,8.28,7.65,8.28,7.65l2.39-3.63Z"/><line class="cls-31" x1="153.46" y1="245.55" x2="159.76" y2="261.86"/><path class="cls-30" d="M119.5,218.3a38.75,38.75,0,0,1,.32,7.64,13.64,13.64,0,0,1-1.14,5s3.45,3.35,6.57,4.06l3.45,2.56-.23-3.49s0-.18,0-.49c-.08-1.35,0-5.6,3.86-7.19C137.57,224.16,119.5,218.3,119.5,218.3Z"/><path class="cls-24" d="M119.5,218.3a38.75,38.75,0,0,1,.32,7.64c2.19,3.27,5,6.39,8.61,7.61-.08-1.35,0-5.6,3.86-7.19C137.57,224.16,119.5,218.3,119.5,218.3Z"/><path class="cls-8" d="M133.48,198.18s5.42,3.08,4.5,9.29-11.07-4.35-11.07-4.35Z"/><path class="cls-30" d="M112.66,214.48c3.81,7.42,5.61,12,11.63,14,9.06,3.09,18.17-5,17-13.47-1.07-7.68-7.14-18.5-16.86-17.93S108.86,207.07,112.66,214.48Z"/><path class="cls-8" d="M127.5,213.51c.27.79.91,1.29,1.42,1.11s.71-1,.45-1.75-.91-1.28-1.43-1.11S127.23,212.72,127.5,213.51Z"/><path class="cls-8" d="M135.09,209.43c.27.78.91,1.29,1.42,1.1s.71-1,.45-1.75-.91-1.28-1.43-1.1S134.82,208.64,135.09,209.43Z"/><path class="cls-8" d="M127.28,207.25a.52.52,0,0,0,0-.3.48.48,0,0,0-.62-.31,4.82,4.82,0,0,0-3.2,3.12.49.49,0,0,0,.35.6h0a.53.53,0,0,0,.6-.35h0a3.83,3.83,0,0,1,2.6-2.44A.49.49,0,0,0,127.28,207.25Z"/><path class="cls-8" d="M136.9,203.5a.47.47,0,0,0,.2-.22.49.49,0,0,0-.32-.62,4.78,4.78,0,0,0-4.42.64.49.49,0,0,0-.07.69h0a.5.5,0,0,0,.68.07h0a3.85,3.85,0,0,1,3.54-.44A.51.51,0,0,0,136.9,203.5Z"/><path class="cls-32" d="M134,212.22l2.91,1s-.28,1.13-2.38,2.13Z"/><path class="cls-8" d="M110.07,209.23a5.91,5.91,0,0,1,1.11-8.66c5-4.06,17-6.86,19.75-10.38,0,0,3.68,3.8,3.88,6.49l1.62-2s-.77,6-5.78,7.56-10.2,1-8.49,7.84-1.87,9.18-1.87,9.18l-.27,6.8a12.27,12.27,0,0,1-9.33-7.45C107.6,211.8,110.07,209.23,110.07,209.23Z"/><path class="cls-30" d="M121.21,217s-3.3-3.81-5.14-1.7,1,9.34,4.35,8.26S123.5,218.93,121.21,217Z"/><path class="cls-33" d="M135.73,218s-5.33,1.82-8.87-.45"/><path class="cls-30" d="M160.35,256.31l-2-.83a2.48,2.48,0,0,0-2.28.17l-3.22,2a4.66,4.66,0,0,0-2.21,3.66l-.06.94c3.19,1.61,7.82,1,7.82,1l1.34,0a2.07,2.07,0,0,0,2.1-2.08l0-2.66A2.39,2.39,0,0,0,160.35,256.31Z"/><path class="cls-24" d="M139,258.13c-.06,1.12-.12,2.27-.18,3.42-.13,2.66-.24,5.34-.33,7.86,0,.44,0,.88-.05,1.31-28.44-1.3-32.89-22.31-32.89-22.31s7.38-7.7,11.52-6.87,13.53,12.17,13.53,12.17l-.39,1.57C131.26,256.46,136.53,257.64,139,258.13Z"/><path class="cls-28" d="M115.72,244.92c1.15,1.2,2.49,2.58,3.81,3.8s2.66,2.5,4,3.66,2.82,2.25,4.25,3.3a48.27,48.27,0,0,0,4.42,2.76l-.79-.27c.31,0,.54.14.92.18s.75.11,1.18.14l1.28.09,1.33,0c1.81,0,3.67,0,5.54-.07s3.77-.15,5.67-.23l5.7-.27h0a2.18,2.18,0,0,1,.76,4.26c-1.89.59-3.77,1.07-5.67,1.55s-3.82.86-5.76,1.22-3.91.65-5.94.84l-1.55.13-1.6.06c-.53,0-1.13,0-1.7,0s-1.28-.15-1.92-.23a1.74,1.74,0,0,1-.46-.13l-.33-.14a44.49,44.49,0,0,1-5.66-2.94,55.62,55.62,0,0,1-5.09-3.55c-1.61-1.27-3.18-2.57-4.67-4q-1.11-1-2.19-2.13c-.73-.74-1.39-1.45-2.14-2.31a4.36,4.36,0,0,1,6.44-5.89Z"/><path class="cls-12" d="M107.69,236.57c6.37-5.88,19.3,16,19.3,16l-7.82,9.64S93.89,249.31,107.69,236.57Z"/><path class="cls-11" d="M107.69,236.57c6.37-5.88,19.3,16,19.3,16l-7.82,9.64S93.89,249.31,107.69,236.57Z"/><polygon class="cls-12" points="117.53 262.68 126.99 251.18 128.75 253.73 120.56 264.59 117.53 262.68"/></g><path class="cls-12" d="M140.17,263s11.57-2.67,18.5-2.47,7.77,1.23,7.77,1.23,4-1.86,7.07-1.24,8.23,1.72,8.23,1.72v2.34l-41.15.45Z"/><path class="cls-34" d="M140.17,263s11.57-2.67,18.5-2.47,7.77,1.23,7.77,1.23,4-1.86,7.07-1.24,8.23,1.72,8.23,1.72v2.34l-41.15.45Z"/><path class="cls-8" d="M144.39,265l-3.24,12.68a4.36,4.36,0,0,1-4.22,3.27H86.08l-.84-4.7h47.62a1.11,1.11,0,0,0,1.09-.85l2.52-10.4Z"/><path class="cls-17" d="M144.39,265l-3.24,12.68a4.36,4.36,0,0,1-4.22,3.27H86.08l-.84-4.7h47.62a1.11,1.11,0,0,0,1.09-.85l2.52-10.4Z"/><rect class="cls-8" x="120.29" y="263.01" width="68.92" height="4.06" rx="1.54"/><path class="cls-25" d="M189.21,264.37v1.34a1.36,1.36,0,0,1-1.37,1.36H121.65a1.36,1.36,0,0,1-1.36-1.36v-1.34a1.36,1.36,0,0,1,1.36-1.36h66.19A1.36,1.36,0,0,1,189.21,264.37Z"/><path class="cls-35" d="M189.21,264.37v1.34a1.36,1.36,0,0,1-1.37,1.36h-32a1.36,1.36,0,0,1-1.36-1.36v-1.34a1.36,1.36,0,0,1,1.36-1.36h32A1.36,1.36,0,0,1,189.21,264.37Z"/></g></g></svg>