<svg xmlns="http://www.w3.org/2000/svg" viewBox="0 0 265.26 243.16"><defs><style>.cls-1{font-size:23.2px;font-family:NotoSans-ExtraBold, Noto Sans;letter-spacing:0.2em;}.cls-1,.cls-11,.cls-4{fill:#4e4e4e;}.cls-1,.cls-2{font-weight:800;}.cls-2{font-size:16px;font-family:NotoSans-Black, Noto Sans;letter-spacing:0.2em;}.cls-13,.cls-2{fill:#ef4444;}.cls-3{letter-spacing:0.18em;}.cls-4{font-size:8.18px;font-family:NotoSans-Medium, Noto Sans;font-weight:500;letter-spacing:0.18em;}.cls-5{letter-spacing:0.2em;}.cls-6{letter-spacing:0.18em;}.cls-7{letter-spacing:0.13em;}.cls-8{letter-spacing:0.2em;}.cls-9{fill:#6b6b6b;}.cls-10{opacity:0.2;}.cls-12{fill:#cacaca;}.cls-14{fill:#f1f1f1;}.cls-15,.cls-18{fill:#363636;}.cls-15,.cls-19{opacity:0.1;}.cls-16{fill:#fff;}.cls-17{fill:#202020;}</style></defs><g id="Layer_2" data-name="Layer 2"><g id="OBJECTS"><text class="cls-1" transform="translate(69.05 208.24)">WEBSITE</text><text class="cls-2" transform="translate(15.86 227.62)">UNDER <tspan class="cls-3" x="80.19" y="0">C</tspan><tspan x="93.46" y="0">ONSTRUCTION</tspan></text><text class="cls-4" transform="translate(85.24 239.94)">C<tspan class="cls-5" x="6.65" y="0">OME B</tspan><tspan class="cls-6" x="40.83" y="0">A</tspan><tspan class="cls-5" x="47.66" y="0">CK L</tspan><tspan class="cls-7" x="71.07" y="0">A</tspan><tspan class="cls-8" x="77.49" y="0">TER</tspan></text><path class="cls-9" d="M257,159.52H5a5,5,0,0,1-5-5H0a5,5,0,0,1,5-5H257a5,5,0,0,1,5,5h0A5,5,0,0,1,257,159.52Z"/><path class="cls-10" d="M232.82,155H24.22a1.21,1.21,0,0,1-1.21-1.2h0a1.21,1.21,0,0,1,1.21-1.21h208.6a1.21,1.21,0,0,1,1.2,1.21h0A1.2,1.2,0,0,1,232.82,155Z"/><path class="cls-11" d="M82.79,153.47,60.29,3.52a.41.41,0,0,1,.4-.46h3.74a.41.41,0,0,1,.39.34l22.5,150"/><path class="cls-11" d="M59.7,153.47,37.19,3.52a.41.41,0,0,1,.4-.46h3.74a.4.4,0,0,1,.39.34l22.5,150"/><path class="cls-11" d="M59.48,131.05H80.69a2.12,2.12,0,0,0,2.12-2.13h0a2.12,2.12,0,0,0-2.12-2.12H59.48a2.12,2.12,0,0,0-2.12,2.12h0A2.12,2.12,0,0,0,59.48,131.05Z"/><path class="cls-11" d="M56.41,111.25H77.63a2.12,2.12,0,0,0,2.12-2.12h0A2.12,2.12,0,0,0,77.63,107H56.41a2.12,2.12,0,0,0-2.12,2.13h0A2.12,2.12,0,0,0,56.41,111.25Z"/><path class="cls-11" d="M53.35,91.45H74.56a2.12,2.12,0,0,0,2.12-2.12h0a2.12,2.12,0,0,0-2.12-2.12H53.35a2.12,2.12,0,0,0-2.12,2.12h0A2.12,2.12,0,0,0,53.35,91.45Z"/><path class="cls-11" d="M50.28,71.65H71.5a2.12,2.12,0,0,0,2.12-2.12h0a2.12,2.12,0,0,0-2.12-2.12H50.28a2.12,2.12,0,0,0-2.12,2.12h0A2.12,2.12,0,0,0,50.28,71.65Z"/><path class="cls-11" d="M47.93,53.74H69.14a2.12,2.12,0,0,0,2.12-2.12h0a2.12,2.12,0,0,0-2.12-2.12H47.93a2.12,2.12,0,0,0-2.12,2.12h0A2.12,2.12,0,0,0,47.93,53.74Z"/><path class="cls-11" d="M44.86,33.94H66.08a2.12,2.12,0,0,0,2.12-2.12h0a2.12,2.12,0,0,0-2.12-2.12H44.86a2.12,2.12,0,0,0-2.12,2.12h0A2.12,2.12,0,0,0,44.86,33.94Z"/><path class="cls-11" d="M42.51,16H63.72a2.12,2.12,0,0,0,2.12-2.12h0a2.12,2.12,0,0,0-2.12-2.13H42.51a2.12,2.12,0,0,0-2.12,2.13h0A2.12,2.12,0,0,0,42.51,16Z"/><path class="cls-12" d="M19.09,153.47,41.59,3.52a.4.4,0,0,0-.39-.46H37.46a.39.39,0,0,0-.39.34l-22.51,150"/><path class="cls-12" d="M42.19,153.47,64.69,3.52a.4.4,0,0,0-.39-.46H60.56a.41.41,0,0,0-.4.34l-22.5,150"/><path class="cls-12" d="M42.41,131.05H21.2a2.12,2.12,0,0,1-2.12-2.13h0a2.12,2.12,0,0,1,2.12-2.12H42.41a2.12,2.12,0,0,1,2.12,2.12h0A2.12,2.12,0,0,1,42.41,131.05Z"/><path class="cls-12" d="M45.47,111.25H24.26a2.12,2.12,0,0,1-2.12-2.12h0A2.12,2.12,0,0,1,24.26,107H45.47a2.12,2.12,0,0,1,2.12,2.13h0A2.12,2.12,0,0,1,45.47,111.25Z"/><path class="cls-12" d="M48.54,91.45H27.32a2.12,2.12,0,0,1-2.12-2.12h0a2.12,2.12,0,0,1,2.12-2.12H48.54a2.12,2.12,0,0,1,2.12,2.12h0A2.12,2.12,0,0,1,48.54,91.45Z"/><path class="cls-12" d="M51.6,71.65H30.39a2.12,2.12,0,0,1-2.12-2.12h0a2.12,2.12,0,0,1,2.12-2.12H51.6a2.12,2.12,0,0,1,2.12,2.12h0A2.12,2.12,0,0,1,51.6,71.65Z"/><path class="cls-12" d="M54,53.74H32.75a2.12,2.12,0,0,1-2.13-2.12h0a2.12,2.12,0,0,1,2.13-2.12H54a2.12,2.12,0,0,1,2.12,2.12h0A2.12,2.12,0,0,1,54,53.74Z"/><path class="cls-12" d="M57,33.94H35.81a2.12,2.12,0,0,1-2.12-2.12h0a2.12,2.12,0,0,1,2.12-2.12H57a2.12,2.12,0,0,1,2.12,2.12h0A2.12,2.12,0,0,1,57,33.94Z"/><path class="cls-12" d="M59.38,16H38.17a2.11,2.11,0,0,1-2.12-2.12h0a2.12,2.12,0,0,1,2.12-2.13H59.38a2.12,2.12,0,0,1,2.12,2.13h0A2.12,2.12,0,0,1,59.38,16Z"/><path class="cls-13" d="M64.47,3.78H37.16A1.14,1.14,0,0,1,36.05,2.4L36.34.9A1.13,1.13,0,0,1,37.45,0H64.76a1.14,1.14,0,0,1,1.12,1.38l-.29,1.5A1.15,1.15,0,0,1,64.47,3.78Z"/><path class="cls-11" d="M181.32,135.85l-1-4.8h0l-.38-1.84h0l-.4-1.9-2.23-10.78a1.32,1.32,0,0,0-1.29-1.06h-6l-1.12-7.57h5.83a1.33,1.33,0,0,0,1.3-1.6l-1-4.79h0l-.38-1.85h0l-.39-1.89L172,87a1.33,1.33,0,0,0-1.3-1h-5.07L165,81.72a.4.4,0,0,0-.39-.34H160.9a.4.4,0,0,0-.39.46l.6,4.09H110.35l-.62-4.21a.39.39,0,0,0-.39-.34H105.6a.4.4,0,0,0-.39.46l.6,4.09H99.19a1.32,1.32,0,0,0-1.3,1.59L100,97.44h0l.77,3.73,1.17,5.67a1.33,1.33,0,0,0,1.3,1.06h5.86l1.11,7.57h-5.67a1.32,1.32,0,0,0-1.29,1.59l2,9.93h0l.77,3.73,1.17,5.66a1.33,1.33,0,0,0,1.3,1.06h4.91L115.69,153a.41.41,0,0,0,.4.34h3.74a.4.4,0,0,0,.39-.46L118,137.44H168.7L171,153a.41.41,0,0,0,.4.34h3.74a.4.4,0,0,0,.39-.46l-2.28-15.45H180A1.32,1.32,0,0,0,181.32,135.85Zm-15.86-20.38H114.71l-1.12-7.57h50.76Z"/><path class="cls-12" d="M147.26,153.35H151a.41.41,0,0,0,.4-.34l10.49-71.17a.41.41,0,0,0-.4-.46h-3.74a.4.4,0,0,0-.39.34l-10.49,71.17A.4.4,0,0,0,147.26,153.35Z"/><path class="cls-12" d="M92,153.35H95.7a.41.41,0,0,0,.4-.34l10.49-71.17a.41.41,0,0,0-.4-.46h-3.74a.41.41,0,0,0-.39.34L91.57,152.89A.4.4,0,0,0,92,153.35Z"/><path class="cls-14" d="M92.37,107.9H163.9a1.33,1.33,0,0,0,1.3-1.06l4-19.32a1.32,1.32,0,0,0-1.3-1.59H96.37a1.33,1.33,0,0,0-1.3,1l-4,19.32A1.32,1.32,0,0,0,92.37,107.9Z"/><polygon class="cls-13" points="102.11 85.93 115.59 107.9 123.14 107.9 109.65 85.93 102.11 85.93"/><polygon class="cls-13" points="92.45 99.67 97.5 107.9 102.84 107.9 93.79 93.17 92.45 99.67"/><polygon class="cls-13" points="123.29 85.93 136.77 107.9 142.11 107.9 128.62 85.93 123.29 85.93"/><polygon class="cls-13" points="138.9 85.93 152.39 107.9 157.72 107.9 144.24 85.93 138.9 85.93"/><polygon class="cls-13" points="160.08 85.93 154.74 85.93 165.8 103.94 167.15 97.44 160.08 85.93"/><path class="cls-14" d="M87.07,137.44H158.6a1.33,1.33,0,0,0,1.3-1.06l4-19.32a1.32,1.32,0,0,0-1.3-1.59H91.07a1.33,1.33,0,0,0-1.3,1.06l-4,19.32A1.32,1.32,0,0,0,87.07,137.44Z"/><polygon class="cls-13" points="96.81 115.47 110.29 137.44 117.84 137.44 104.35 115.47 96.81 115.47"/><polygon class="cls-13" points="87.15 129.21 92.2 137.44 97.53 137.44 88.49 122.71 87.15 129.21"/><polygon class="cls-13" points="117.98 115.47 131.47 137.44 136.81 137.44 123.32 115.47 117.98 115.47"/><polygon class="cls-13" points="133.6 115.47 147.09 137.44 152.42 137.44 138.93 115.47 133.6 115.47"/><polygon class="cls-13" points="154.78 115.47 149.44 115.47 160.5 133.48 161.84 126.99 154.78 115.47"/><path class="cls-15" d="M167.9,85.93h-2.85L161.93,101a1.25,1.25,0,0,1-1.22,1H93.06a1.25,1.25,0,0,1-1-.49l-1,4.79a1.32,1.32,0,0,0,1.29,1.6H163.9a1.33,1.33,0,0,0,1.3-1.06l4-19.32A1.32,1.32,0,0,0,167.9,85.93Z"/><path class="cls-15" d="M162.6,115.47h-2.85l-3.12,15.07a1.25,1.25,0,0,1-1.22,1H87.76a1.22,1.22,0,0,1-1-.49l-1,4.8a1.32,1.32,0,0,0,1.3,1.59H158.6a1.33,1.33,0,0,0,1.3-1.06l4-19.32A1.32,1.32,0,0,0,162.6,115.47Z"/><path class="cls-16" d="M95.29,120h3.79a1.52,1.52,0,0,0,1.51-1.52h0A1.52,1.52,0,0,0,99.08,117H95.29a1.52,1.52,0,0,0-1.51,1.51h0A1.52,1.52,0,0,0,95.29,120Z"/><path class="cls-16" d="M150.09,128.6h2.52a1,1,0,0,0,1-1h0a1,1,0,0,0-1-1h-2.52a1,1,0,0,0-1,1h0A1,1,0,0,0,150.09,128.6Z"/><path class="cls-16" d="M111.2,90.47H115A1.52,1.52,0,0,0,116.5,89h0A1.52,1.52,0,0,0,115,87.44H111.2A1.53,1.53,0,0,0,109.68,89h0A1.52,1.52,0,0,0,111.2,90.47Z"/><path class="cls-16" d="M102.11,100.32h4.54a1.52,1.52,0,0,0,1.52-1.51h0a1.52,1.52,0,0,0-1.52-1.52h-4.54a1.53,1.53,0,0,0-1.52,1.52h0A1.52,1.52,0,0,0,102.11,100.32Z"/><path class="cls-16" d="M154.38,92h4.54a1.52,1.52,0,0,0,1.52-1.52h0A1.52,1.52,0,0,0,158.92,89h-4.54a1.52,1.52,0,0,0-1.52,1.51h0A1.52,1.52,0,0,0,154.38,92Z"/><rect class="cls-12" x="186.1" y="48.35" width="4" height="105" rx="0.42"/><rect class="cls-13" x="164.6" y="11.35" width="47" height="47" rx="3.24" transform="translate(79.73 -122.8) rotate(45)"/><rect class="cls-16" x="168.48" y="14.72" width="39.23" height="39.23" rx="2.7" transform="translate(79.37 -122.95) rotate(45)"/><path class="cls-13" d="M207.2,123.68a.49.49,0,0,0-.93,0l-3.48,9.74h7.79Z"/><path class="cls-13" d="M216.89,151.58,214,143.39h-14.8l-2.92,8.19a.49.49,0,0,0,.46.66h19.64A.5.5,0,0,0,216.89,151.58Z"/><polygon class="cls-14" points="210.58 133.42 202.79 133.42 199.24 143.38 214.04 143.38 210.58 133.42"/><rect class="cls-13" x="193.35" y="150.57" width="26.6" height="2.78" rx="0.65"/><path class="cls-15" d="M219.35,150.58h-2.8l-2.49-7.19-3.45-10-3.37-9.74a.49.49,0,0,0-.93,0l-.45,1.27,7.82,24H197.34l-.59,1.66h-2.81a.59.59,0,0,0-.59.6v1.57a.59.59,0,0,0,.59.6h25.41a.6.6,0,0,0,.6-.6v-1.57A.6.6,0,0,0,219.35,150.58Z"/><path class="cls-16" d="M206.74,134.53h1.1a.83.83,0,0,0,.83-.83h0a.83.83,0,0,0-.83-.83h-1.1a.83.83,0,0,0-.83.83h0A.83.83,0,0,0,206.74,134.53Z"/><path class="cls-16" d="M204.25,143.39H202a.56.56,0,0,1-.55-.56h0a.55.55,0,0,1,.55-.55h2.22a.55.55,0,0,1,.55.55h0A.56.56,0,0,1,204.25,143.39Z"/><path class="cls-13" d="M209.5,148.37h1.66a.83.83,0,0,0,.83-.83h0a.83.83,0,0,0-.83-.83H209.5a.83.83,0,0,0-.83.83h0A.84.84,0,0,0,209.5,148.37Z"/><path class="cls-13" d="M205.91,130.65h-.56a.55.55,0,0,1-.55-.55h0a.55.55,0,0,1,.55-.55h.56a.55.55,0,0,1,.55.55h0A.55.55,0,0,1,205.91,130.65Z"/><path class="cls-17" d="M83.43,153.11l.83.74a.81.81,0,0,0,.84.16l1-.37a10.51,10.51,0,0,0,6.81-7.77l1.62-8.39a.73.73,0,0,0-.43-.78L92.71,136a17.52,17.52,0,0,0-4.34-1.42h0a18.3,18.3,0,0,0-4.37-.29l-1.8.09a.72.72,0,0,0-.69.57l-1.61,8.31A10.54,10.54,0,0,0,83.43,153.11Z"/><path class="cls-12" d="M87.12,140.79h0a.84.84,0,0,1-.66-1l10.61-55a.85.85,0,0,1,1-.67h0a.85.85,0,0,1,.67,1l-10.62,55A.84.84,0,0,1,87.12,140.79Z"/><path class="cls-18" d="M87.06,141.51h0a1.2,1.2,0,0,1-1-1.4l3.09-16a.24.24,0,0,1,.29-.2l1.85.36a.24.24,0,0,1,.2.29l-3.09,16A1.18,1.18,0,0,1,87.06,141.51Z"/><path class="cls-19" d="M94.1,136.7l-.63-.3L92,144a10.51,10.51,0,0,1-6.81,7.77l-1,.37a.83.83,0,0,1-.83-.16l-.84-.74a11.41,11.41,0,0,1-2.24-2.74,11.12,11.12,0,0,0,3.14,4.64l.83.74a.81.81,0,0,0,.84.16l1-.37a10.51,10.51,0,0,0,6.81-7.77l1.62-8.39A.73.73,0,0,0,94.1,136.7Z"/><rect class="cls-13" x="96.96" y="83.1" width="1.93" height="3.51" transform="translate(17.85 -17.01) rotate(10.92)"/><path class="cls-13" d="M95.93,76.85,95,81.52a1.77,1.77,0,0,0,1.4,2.08l3.24.62a1.76,1.76,0,0,0,2.07-1.4l.9-4.68a.85.85,0,0,0-.67-1l-5-1A.84.84,0,0,0,95.93,76.85Zm2.65,5.63-.5-.1a1.77,1.77,0,0,1-1.4-2.07l.49-2.55,4,.77-.49,2.55A1.77,1.77,0,0,1,98.58,82.48Z"/><rect class="cls-18" x="97.88" y="76.53" width="2.83" height="1.83" transform="translate(16.46 -17.4) rotate(10.92)"/><path class="cls-10" d="M201.59,163.62h39.83a.83.83,0,0,0,.83-.83h0a.83.83,0,0,0-.83-.82H201.59a.82.82,0,0,0-.82.82h0A.83.83,0,0,0,201.59,163.62Z"/><path class="cls-10" d="M29.3,163.15H69.13a.83.83,0,0,0,.83-.83h0a.83.83,0,0,0-.83-.82H29.3a.82.82,0,0,0-.82.82h0A.83.83,0,0,0,29.3,163.15Z"/><path class="cls-10" d="M54.75,170h92.07a.82.82,0,0,0,.81-.82h0a.81.81,0,0,0-.81-.81H54.75a.82.82,0,0,0-.82.81h0A.82.82,0,0,0,54.75,170Z"/><path class="cls-13" d="M49.76,124.4a.5.5,0,0,0-.94,0l-3.47,9.75h7.79Z"/><path class="cls-13" d="M59.44,152.3l-2.84-8.2H41.79l-2.92,8.2a.5.5,0,0,0,.47.66H59A.5.5,0,0,0,59.44,152.3Z"/><polygon class="cls-14" points="53.14 134.14 45.35 134.14 41.8 144.1 56.59 144.1 53.14 134.14"/><rect class="cls-13" x="35.9" y="151.29" width="26.6" height="2.78" rx="0.65"/><path class="cls-15" d="M61.91,151.3H59.1l-2.48-7.2-3.45-10L49.8,124.4a.49.49,0,0,0-.93,0l-.45,1.27,7.81,24H39.9l-.59,1.66H36.5a.6.6,0,0,0-.6.6v1.57a.6.6,0,0,0,.6.6H61.91a.59.59,0,0,0,.59-.6V151.9A.59.59,0,0,0,61.91,151.3Z"/><rect class="cls-16" x="48.46" y="133.59" width="2.77" height="1.66" rx="0.83"/><path class="cls-16" d="M46.8,144.1H44.59a.56.56,0,0,1-.56-.55h0a.56.56,0,0,1,.56-.55H46.8a.56.56,0,0,1,.56.55h0A.56.56,0,0,1,46.8,144.1Z"/><path class="cls-13" d="M52.06,149.08h1.66a.83.83,0,0,0,.83-.83h0a.83.83,0,0,0-.83-.83H52.06a.83.83,0,0,0-.83.83h0A.83.83,0,0,0,52.06,149.08Z"/><path class="cls-13" d="M48.46,131.37h-.55a.55.55,0,0,1-.55-.55h0a.54.54,0,0,1,.55-.55h.55a.55.55,0,0,1,.56.55h0A.56.56,0,0,1,48.46,131.37Z"/><path class="cls-11" d="M188.54,39.11h-2.3a.48.48,0,0,1-.48-.47l-.42-18a.49.49,0,0,1,.49-.5H189a.49.49,0,0,1,.49.5l-.42,18A.48.48,0,0,1,188.54,39.11Zm.39,6.28h-3.08a.49.49,0,0,1-.48-.48V41.83a.49.49,0,0,1,.48-.48h3.08a.49.49,0,0,1,.48.48v3.08A.49.49,0,0,1,188.93,45.39Z"/></g></g></svg>